<svg xmlns="http://www.w3.org/2000/svg" viewBox="0 0 448 448"><defs><radialGradient id="g" cx="30%" cy="107%" r="150%"><stop offset="0" stop-color="#fdf497"/><stop offset="0.05" stop-color="#fdf497"/><stop offset="0.45" stop-color="#fd5949"/><stop offset="0.6" stop-color="#d6249f"/><stop offset="0.9" stop-color="#285AEB"/></radialGradient></defs><rect x="32" y="32" width="384" height="384" rx="90" fill="url(#g)"/><path fill="#fff" d="M224 142c-45.3 0-82 36.7-82 82s36.7 82 82 82 82-36.7 82-82-36.7-82-82-82zm0 134c-28.7 0-52-23.3-52-52s23.3-52 52-52 52 23.3 52 52-23.3 52-52 52z"/><circle cx="314" cy="134" r="20" fill="#fff"/><path fill="#fff" d="M224 80c46.9 0 52.5.2 71 1 17.1.8 26.4 3.6 32.6 6 8.2 3.2 14.1 7 20.3 13.2 6.2 6.2 10 12.1 13.2 20.3 2.4 6.2 5.2 15.5 6 32.6.8 18.5 1 24.1 1 71s-.2 52.5-1 71c-.8 17.1-3.6 26.4-6 32.6-3.2 8.2-7 14.1-13.2 20.3-6.2 6.2-12.1 10-20.3 13.2-6.2 2.4-15.5 5.2-32.6 6-18.5.8-24.1 1-71 1s-52.5-.2-71-1c-17.1-.8-26.4-3.6-32.6-6-8.2-3.2-14.1-7-20.3-13.2-6.2-6.2-10-12.1-13.2-20.3-2.4-6.2-5.2-15.5-6-32.6-.8-18.5-1-24.1-1-71s.2-52.5 1-71c.8-17.1 3.6-26.4 6-32.6 3.2-8.2 7-14.1 13.2-20.3 6.2-6.2 12.1-10 20.3-13.2 6.2-2.4 15.5-5.2 32.6-6 18.5-.8 24.1-1 71-1zm0-32c-47.7 0-53.7.2-72.5 1.1-18.7.9-31.5 3.8-42.7 8.2-11.6 4.5-21.4 10.5-31.2 20.3-9.8 9.8-15.8 19.6-20.3 31.2-4.4 11.2-7.3 24-8.2 42.7C48.2 170.3 48 176.3 48 224s.2 53.7 1.1 72.5c.9 18.7 3.8 31.5 8.2 42.7 4.5 11.6 10.5 21.4 20.3 31.2 9.8 9.8 19.6 15.8 31.2 20.3 11.2 4.4 24 7.3 42.7 8.2 18.8.9 24.8 1.1 72.5 1.1s53.7-.2 72.5-1.1c18.7-.9 31.5-3.8 42.7-8.2 11.6-4.5 21.4-10.5 31.2-20.3 9.8-9.8 15.8-19.6 20.3-31.2 4.4-11.2 7.3-24 8.2-42.7.9-18.8 1.1-24.8 1.1-72.5s-.2-53.7-1.1-72.5c-.9-18.7-3.8-31.5-8.2-42.7-4.5-11.6-10.5-21.4-20.3-31.2-9.8-9.8-19.6-15.8-31.2-20.3-11.2-4.4-24-7.3-42.7-8.2C277.7 48.2 271.7 48 224 48z"/></svg>